<svg width="27" height="27" viewBox="0 0 27 27" fill="none" xmlns="http://www.w3.org/2000/svg">
<path d="M15.1692 12.9101C17.079 12.6703 18.9623 13.4389 20.1701 14.9267C20.2587 15.0359 20.4169 15.0598 20.5305 14.9769C21.0776 14.5771 21.5486 14.0777 21.918 13.5011C24.2197 9.90984 21.6637 5.0625 17.2969 5.0625C14.4473 5.0625 12.0986 7.24628 11.8372 10.0283C11.8267 10.1407 11.8888 10.248 11.992 10.2936C13.1841 10.8209 14.2025 11.6896 14.9179 12.794C14.9721 12.8778 15.0702 12.9225 15.1692 12.9101V12.9101Z" fill="white"/>
<path d="M17.2969 4.21875C17.7629 4.21875 18.1406 3.84096 18.1406 3.375V1.6875C18.1406 1.22154 17.7629 0.84375 17.2969 0.84375C16.8309 0.84375 16.4531 1.22154 16.4531 1.6875V3.375C16.4531 3.84096 16.8309 4.21875 17.2969 4.21875Z" fill="white"/>
<path d="M26.1562 9.70312H24.4688C24.0027 9.70312 23.625 10.0809 23.625 10.5469C23.625 11.0128 24.0027 11.3906 24.4688 11.3906H26.1562C26.6223 11.3906 27 11.0128 27 10.5469C27 10.0809 26.6223 9.70312 26.1562 9.70312Z" fill="white"/>
<path d="M22.9648 15.0216C22.6353 14.6921 22.1011 14.6921 21.7715 15.0216C21.442 15.3511 21.442 15.8853 21.7715 16.2148L22.9648 17.408C23.1295 17.5728 23.3454 17.6552 23.5613 17.6552C24.3064 17.6552 24.691 16.7478 24.1579 16.2148L22.9648 15.0216Z" fill="white"/>
<path d="M11.629 6.07218C11.9585 6.40172 12.4927 6.40172 12.8222 6.07218C13.1517 5.74265 13.1517 5.20845 12.8222 4.87896L11.629 3.68574C11.2996 3.35626 10.7654 3.35626 10.4358 3.68574C10.1062 4.01528 10.1062 4.54948 10.4358 4.87896L11.629 6.07218Z" fill="white"/>
<path d="M22.3682 6.31931C22.5841 6.31931 22.8 6.23694 22.9648 6.07214L24.158 4.87892C24.4875 4.54938 24.4875 4.01519 24.158 3.6857C23.8285 3.35622 23.2942 3.35616 22.9648 3.6857L21.7716 4.87897C21.2385 5.41207 21.6233 6.31931 22.3682 6.31931V6.31931Z" fill="white"/>
<path d="M19.6451 19.1953C20.2956 15.9904 16.9393 13.5195 14.093 14.9801C13.4674 12.9156 11.55 11.4126 9.28125 11.4126C6.33688 11.4126 4.01235 13.9343 4.27412 16.8894C1.88251 17.0762 0 19.076 0 21.5156C0 24.0715 2.07062 26.1563 4.64062 26.1563H19.7227C21.6449 26.1563 23.2031 24.598 23.2031 22.6758C23.2031 20.8386 21.7575 19.1953 19.6451 19.1953Z" fill="white"/>
</svg>
