<svg width="26" height="26" viewBox="0 0 26 26" fill="none" xmlns="http://www.w3.org/2000/svg">
<g clip-path="url(#clip0)">
<path d="M14.0145 20.2226L25.5846 8.65232C25.8525 8.38471 26 8.02748 26 7.64657C26 7.26567 25.8525 6.90843 25.5846 6.64083L24.7328 5.78875C24.1777 5.2343 23.2755 5.2343 22.7213 5.78875L13.0054 15.5046L3.27872 5.77797C3.0109 5.51036 2.65388 5.36261 2.27318 5.36261C1.89207 5.36261 1.53504 5.51036 1.26701 5.77797L0.415362 6.63005C0.147543 6.89787 4.81223e-07 7.25489 4.81223e-07 7.63579C4.81223e-07 8.0167 0.147543 8.37393 0.415362 8.64154L11.996 20.2226C12.2647 20.4909 12.6234 20.6382 13.0048 20.6374C13.3876 20.6382 13.7461 20.4909 14.0145 20.2226Z" fill="white"/>
</g>
<defs>
<clipPath id="clip0">
<rect width="26" height="26" fill="white" transform="translate(26) rotate(90)"/>
</clipPath>
</defs>
</svg>
