<svg width="28" height="28" viewBox="0 0 28 28" fill="none" xmlns="http://www.w3.org/2000/svg">
<path d="M27.1054 25.5036L20.4414 18.5726C22.1548 16.5358 23.0936 13.973 23.0936 11.305C23.0936 5.07152 18.0221 0 11.7886 0C5.55516 0 0.483643 5.07152 0.483643 11.305C0.483643 17.5385 5.55516 22.61 11.7886 22.61C14.1288 22.61 16.3588 21.9042 18.2654 20.5643L24.9801 27.5478C25.2607 27.8393 25.6382 28 26.0427 28C26.4256 28 26.7889 27.854 27.0646 27.5886C27.6505 27.0248 27.6692 26.0899 27.1054 25.5036ZM11.7886 2.94913C16.3962 2.94913 20.1445 6.69747 20.1445 11.305C20.1445 15.9125 16.3962 19.6609 11.7886 19.6609C7.18111 19.6609 3.43277 15.9125 3.43277 11.305C3.43277 6.69747 7.18111 2.94913 11.7886 2.94913Z" fill="white"/>
</svg>
